<?xml version="1.0" encoding="UTF-8"?> <svg xmlns="http://www.w3.org/2000/svg" width="776" height="160" viewBox="0 0 776 160" fill="none"><path d="M519.028 70.5523C523.673 56.9259 538.177 49.43 553.093 52.946C566.649 56.1416 575.837 69.118 573.952 82.4082C572.552 92.2755 567.55 99.098 558.399 103.621C554.538 105.529 553.745 105.709 548.187 105.938C541.156 106.227 537.088 105.525 532.502 103.228C528.697 101.322 524.028 97.0437 521.63 93.2645C517.629 86.9582 516.574 77.7514 519.028 70.5523ZM559.149 72.601C556.571 67.2869 552.027 64.4826 545.959 64.4612C540.093 64.441 535.642 67.0441 533.215 71.9139C532.045 74.2606 531.781 75.5998 531.781 79.1946C531.781 84.2511 532.67 86.8789 535.324 89.6764C537.951 92.4453 540.972 93.6575 545.275 93.6681C549.998 93.6799 552.372 92.989 554.973 90.843C558.476 87.9533 560.053 84.6542 560.3 79.6944C560.482 76.0389 560.314 75.0005 559.149 72.601Z" fill="#FFFFFF"></path><path d="M752.733 53.2047C758.917 53.2047 765.101 53.2047 771.286 53.2047C771.286 55.1685 771.286 57.1328 771.286 59.0966C771.286 61.0604 771.286 63.0242 771.286 64.988C767.397 65.0386 763.509 65.0898 759.62 65.1404C755.731 65.191 751.843 65.2416 747.954 65.2922C747.954 66.5105 747.954 67.7283 747.954 68.9466C747.954 70.1649 747.954 71.3826 747.954 72.6009C750.484 72.7162 753.014 72.8314 755.544 72.9467C759.718 73.1367 763.907 73.5477 764.853 73.8603C772.478 76.3796 776.051 81.2022 776 88.9051C775.953 95.9007 772.658 101.107 766.507 103.904C763.857 105.109 762.848 105.194 748.938 105.391C744.018 105.461 739.099 105.53 734.18 105.599C734.18 96.8671 734.18 88.1343 734.18 79.402C734.18 70.6697 734.18 61.9369 734.18 53.2047C740.364 53.2047 746.548 53.2047 752.733 53.2047ZM761.403 85.208C760.056 83.9413 759.53 83.8452 753.954 83.8452C751.954 83.8452 749.954 83.8452 747.954 83.8452C747.954 85.5318 747.954 87.2184 747.954 88.9051C747.954 90.5917 747.954 92.2783 747.954 93.965C750.101 93.9374 752.249 93.9099 754.396 93.8823C760.314 93.8064 760.919 93.6985 761.845 92.555C763.415 90.6164 763.19 86.8884 761.403 85.208Z" fill="#FFFFFF"></path><path d="M494.396 53.2047C500.674 53.2047 506.951 53.2047 513.23 53.2047C513.23 55.1685 513.23 57.1323 513.23 59.0961C513.23 61.0599 513.23 63.0242 513.23 64.988C509.435 65.0386 505.64 65.0892 501.845 65.1398C498.05 65.1904 494.255 65.2416 490.46 65.2922C490.404 66.4633 490.348 67.6349 490.293 68.806C490.237 69.9771 490.181 71.1488 490.126 72.3198C492.852 72.3198 495.578 72.3198 498.304 72.3198C501.03 72.3198 503.757 72.3198 506.483 72.3198C506.483 74.1886 506.483 76.058 506.483 77.9268C506.483 79.7956 506.483 81.6644 506.483 83.5332C503.813 83.5854 501.142 83.6377 498.472 83.6895C495.801 83.7412 493.131 83.7935 490.46 83.8452C490.406 85.3913 490.352 86.9373 490.297 88.4834C490.243 90.0295 490.188 91.5756 490.133 93.1217C494.076 93.1217 498.02 93.1217 501.963 93.1217C505.906 93.1217 509.849 93.1217 513.792 93.1217C513.792 95.1833 513.792 97.2444 513.792 99.306C513.792 101.368 513.792 103.429 513.792 105.49C507.42 105.49 501.048 105.49 494.677 105.49C488.305 105.49 481.933 105.49 475.562 105.49C475.562 96.776 475.562 88.0618 475.562 79.3475C475.562 70.6332 475.562 61.9189 475.562 53.2047C481.84 53.2047 488.117 53.2047 494.396 53.2047Z" fill="#FFFFFF"></path><path d="M677.419 102.398C678.014 101.161 682.214 91.8005 686.754 81.5963C698.472 55.2539 698.975 54.1413 699.6 53.1108C700.356 51.8638 703.797 51.531 704.444 52.6425C704.714 53.1063 707.362 58.9252 710.328 65.5733C717.7 82.0956 720.069 87.3927 721.265 90.0295C726.744 102.113 727.877 105.007 727.223 105.258C726.837 105.407 723.521 105.456 719.856 105.368C717.634 105.315 715.413 105.262 713.191 105.209C712.971 104.553 712.75 103.898 712.529 103.241C712.309 102.585 712.089 101.93 711.868 101.274C708.622 101.274 705.376 101.274 702.13 101.274C698.883 101.274 695.637 101.274 692.391 101.274C692.171 101.93 691.95 102.585 691.729 103.241C691.509 103.898 691.288 104.553 691.068 105.209C688.601 105.262 686.134 105.314 683.668 105.366C679.598 105.452 676.284 105.326 676.303 105.085C676.322 104.844 676.825 103.635 677.419 102.398ZM705.432 86.094C704.842 84.548 703.958 82.1957 703.468 80.866C702.979 79.5364 702.338 78.5283 702.044 78.6262C701.609 78.7712 699.908 83.093 697.824 89.3515C697.517 90.273 697.867 90.346 701.872 90.1948C704.284 90.1037 706.313 89.7765 706.381 89.4673C706.45 89.1581 706.022 87.6401 705.432 86.094Z" fill="#FFFFFF"></path><path d="M580.653 71.0818C582.061 66.6803 583.998 63.5656 587.465 60.1288C593.241 54.4032 600.674 51.7575 609.646 52.2342C615.447 52.5423 619.342 53.8309 623.844 56.9321C627.086 59.1646 631.311 64.0502 631.259 65.5064C631.241 66.0073 629.326 67.7445 627.004 69.3682C623.039 72.1393 620.609 73.0473 620.609 71.7571C620.609 70.7563 615.896 66.5622 613.582 65.503C611.099 64.3668 606.251 64.1306 603.226 64.9981C600.277 65.8437 597.072 68.3366 595.513 70.9958C593.757 73.9918 593.101 80.5349 594.172 84.3613C595.774 90.0801 601.148 93.857 607.626 93.8165C612.492 93.7862 615.958 92.1934 619.1 88.5447C620.394 87.0424 621.644 85.8129 621.879 85.8129C622.828 85.8123 631.267 91.7684 631.278 92.447C631.326 95.2108 624.986 101.435 619.506 104.004C616.312 105.502 615.119 105.737 609.656 105.946C599.771 106.325 593.398 104.086 587.466 98.1546C580.504 91.1927 577.738 80.2003 580.653 71.0818Z" fill="#FFFFFF"></path><path d="M658.842 53.2047C666.338 53.2047 673.834 53.2047 681.33 53.2047C681.33 55.1724 681.33 57.1401 681.33 59.1079C681.33 61.0756 681.33 63.0434 681.33 65.0111C678.707 65.0111 676.083 65.0111 673.459 65.0111C670.836 65.0111 668.212 65.0111 665.589 65.0111C665.589 71.7576 665.589 78.5042 665.589 85.2507C665.589 91.9972 665.589 98.7438 665.589 105.49C663.34 105.49 661.091 105.49 658.842 105.49C656.593 105.49 654.344 105.49 652.095 105.49C652.095 98.7438 652.095 91.9972 652.095 85.2507C652.095 78.5042 652.095 71.7576 652.095 65.0111C649.472 65.0111 646.848 65.0111 644.224 65.0111C641.601 65.0111 638.977 65.0111 636.354 65.0111C636.354 63.0434 636.354 61.0756 636.354 59.1079C636.354 57.1401 636.354 55.1724 636.354 53.2047C643.849 53.2047 651.346 53.2047 658.842 53.2047Z" fill="#FFFFFF"></path><path d="M450.412 53.2047C456.272 53.2047 462.133 53.2047 467.993 53.2047C467.95 55.0318 467.907 56.859 467.864 58.6862C467.793 61.7008 467.725 64.3522 467.712 64.5771C467.699 64.802 462.945 65.055 457.148 65.1393C453.634 65.1905 450.12 65.241 446.606 65.2922C446.557 71.9921 446.508 78.6914 446.458 85.3913C446.409 92.0911 446.361 98.7904 446.311 105.49C444.064 105.49 441.818 105.49 439.571 105.49C437.325 105.49 435.079 105.49 432.832 105.49C432.832 96.776 432.832 88.0618 432.832 79.3475C432.832 70.6332 432.832 61.9189 432.832 53.2047C438.692 53.2047 444.552 53.2047 450.412 53.2047Z" fill="#FFFFFF"></path><path d="M375.87 70.0108C377.032 73.2317 377.19 74.5529 377.051 79.954C376.896 86.0085 376.825 86.3171 374.505 90.9998C372.73 94.5811 371.288 96.5769 368.884 98.7774C357.535 109.164 339.473 108.777 329.478 97.9336C326.884 95.1197 325.735 93.1401 323.746 88.0617C322.357 84.5169 322.25 84.4023 320.145 84.228C318.791 84.1161 317.799 84.3269 317.506 84.7902C317.247 85.1984 317.031 90.0221 317.027 95.511C317.024 98.8376 317.021 102.164 317.018 105.49C314.77 105.49 312.521 105.49 310.272 105.49C308.023 105.49 305.774 105.49 303.525 105.49C303.525 96.7793 303.525 88.069 303.525 79.3581C303.525 70.6472 303.525 61.9369 303.525 53.226C303.947 53.1208 304.369 53.0151 304.79 52.91C305.486 52.7363 308.459 52.6682 311.396 52.7587C313.177 52.8138 314.957 52.8684 316.737 52.9235C316.789 55.9088 316.841 58.8936 316.893 61.8789C316.99 67.5207 317.285 71.12 317.687 71.6052C318.536 72.6284 322.673 72.3214 323.208 71.1953C323.429 70.7315 324.414 68.6182 325.398 66.4986C329.139 58.4337 335.543 53.7719 344.787 52.3843C359.011 50.249 371.239 57.1839 375.87 70.0108ZM336.322 74.468C335.217 78.3866 335.701 83.5702 337.451 86.5566C339.331 89.7646 342.306 92.3469 344.973 93.0879C354.755 95.8045 363.314 89.2367 363.219 79.0877C363.159 72.7487 360.672 68.382 355.717 65.9123C347.868 62.0009 338.697 66.0466 336.322 74.468Z" fill="#97CA4C"></path><path d="M295.08 75.2433C295.703 79.5223 295.703 79.5498 295.063 83.564C293.423 93.8508 285.81 102.158 275.221 105.215C269.947 106.737 262.06 106.484 256.862 104.627C247.652 101.335 241.979 94.8948 239.381 84.7834C238.088 79.7528 238.297 76.5656 240.348 70.0012C243.034 61.4022 250.984 54.6214 260.759 52.5923C265.255 51.6591 273.84 52.223 277.722 53.7066C286.938 57.2289 293.673 65.5856 295.08 75.2433ZM254.325 71.9436C253.007 74.5551 252.876 75.3709 253.033 79.9962C253.194 84.725 253.35 85.3411 254.963 87.5861C255.928 88.9297 257.753 90.7665 259.018 91.6672C260.978 93.0631 261.984 93.3437 265.825 93.5663C269.889 93.8019 270.641 93.6759 273.476 92.2884C276.578 90.771 279.333 87.8261 280.586 84.6884C281.423 82.5902 281.26 75.0662 280.329 72.8426C278.152 67.6483 273.132 64.464 267.104 64.4544C261.225 64.4454 256.802 67.0372 254.325 71.9436Z" fill="#97CA4C"></path><path d="M423.145 85.6082C425.138 93.1334 421.634 100.714 414.632 104.026C408.578 106.891 398.147 106.938 392.012 104.13C387.18 101.917 380.908 95.3727 381.972 93.6518C382.495 92.8051 390.19 87.4995 390.895 87.4995C391.233 87.4995 392.238 88.412 393.127 89.5268C395.276 92.2204 398.573 93.6563 402.642 93.6715C407.661 93.6906 410.344 91.8448 410.344 88.3715C410.344 85.8876 407.583 84.6929 401.838 84.6907C400.22 84.6901 398.603 84.689 396.986 84.6884C396.905 83.5786 396.825 82.4683 396.745 81.3585C396.612 79.5268 396.61 77.1239 396.739 76.0175C396.97 74.0357 397.012 74.0059 399.583 73.9929C403.244 73.9744 406.532 73.1176 407.377 71.9622C408.496 70.4324 408.273 67.0327 406.976 65.8594C406.353 65.2955 404.645 64.7305 403.12 64.5837C399.651 64.2503 396.889 65.4968 394.549 68.4512C393.598 69.6515 392.57 70.6331 392.264 70.6331C391.071 70.6331 383.384 64.6889 383.371 63.7567C383.364 63.2215 385.004 61.0379 387.017 58.9043C391.257 54.4094 393.928 53.0539 400.505 52.056C404.383 51.4679 405.501 51.5017 408.62 52.3039C410.609 52.8155 413.254 53.7966 414.497 54.4842C417.195 55.9769 420.195 59.7369 421 62.6357C422.343 67.4718 421.173 74.0424 418.585 76.1833C417.185 77.3415 417.419 78.0594 420.112 80.8693C421.537 82.3569 422.812 84.3488 423.145 85.6082Z" fill="#97CA4C"></path><path d="M231.662 62.3933C232.866 63.9181 233.768 65.4192 233.665 65.7295C233.561 66.0399 231.253 67.8192 228.536 69.6835C226.89 70.8136 225.243 71.9436 223.597 73.0737C222.586 71.9397 221.577 70.8051 220.566 69.6712C217.004 65.6722 214.416 64.4488 209.52 64.4488C204.217 64.4488 199.245 67.4139 196.85 72.0044C195.692 74.2228 195.24 81.6727 196.103 84.2892C198.039 90.1536 203.091 93.668 209.598 93.6782C214.168 93.6849 217.34 92.2254 220.927 88.4648C223.927 85.3192 223.282 85.2416 229.95 89.5549C232.073 90.9284 233.81 92.2692 233.81 92.5352C233.81 93.3841 228.874 99.1142 226.571 100.937C223.023 103.748 218.779 105.404 213.659 105.977C205.576 106.881 199.274 105.569 193.595 101.8C186.588 97.1487 182.168 89.6724 181.666 81.6204C180.538 63.5425 193.107 51.3476 211.971 52.2162C216.723 52.4349 217.912 52.7104 221.528 54.4324C226.289 56.6993 228.59 58.5068 231.662 62.3933Z" fill="#97CA4C"></path><path d="M98.1026 57.3587C96.984 56.2401 95.8653 55.1215 94.7467 54.0029C100.228 48.4835 105.709 42.9642 111.19 37.4448C106.524 32.803 101.857 28.1612 97.1909 23.5194C89.4913 15.8605 82.293 8.7985 81.1948 7.82598C80.5292 7.23669 79.8636 6.64719 79.198 6.0579C73.9965 11.2709 68.795 16.4836 63.5934 21.6965C55.0108 30.2977 48.0174 37.4211 48.0523 37.526C48.0872 37.6309 51.8122 41.3812 56.3301 45.8599C59.0682 48.5743 61.8061 51.2885 64.5442 54.0029C66.2595 55.7182 67.9746 57.4332 69.6899 59.1485C72.8976 62.3813 76.1051 65.6139 79.3128 68.8466C79.9106 68.2929 80.5084 67.7392 81.1062 67.1855C82.0926 66.2721 84.3568 64.1402 86.1383 62.4484C87.218 61.4231 88.2977 60.3976 89.3774 59.3722C90.496 60.5653 91.6146 61.7587 92.7332 62.9518C82.7903 72.63 81.1572 74.1413 80.141 74.6041C78.7598 75.2335 78.3747 74.95 72.0517 68.6489C70.0713 66.6752 68.0907 64.7017 66.1103 62.7281C64.395 61.0875 62.68 59.4467 60.9647 57.8062C54.626 51.3502 48.287 44.8943 41.9483 38.4383C41.9481 38.0681 41.9476 37.698 41.9472 37.3278C41.947 36.9575 41.9465 36.5873 41.9463 36.217C47.9033 30.2698 53.8604 24.3224 59.8174 18.3751C71.8103 6.40221 77.9519 0.42346 78.4886 0.19929C79.5269 -0.234507 80.0699 -0.026222 81.8415 1.48614C82.597 2.13113 90.8435 10.2616 100.167 19.5542C115.773 35.1084 117.119 36.5083 117.119 37.187C117.119 37.5927 117.008 38.1444 116.872 38.413C116.736 38.6817 112.458 43.0544 107.364 48.1302C104.277 51.2064 101.19 54.2826 98.1026 57.3587Z" fill="#FFFFFF"></path><path d="M60.7376 101.432C60.7416 101.376 60.7454 101.32 60.7494 101.264C60.7559 101.172 60.051 100.366 57.6055 97.8525C59.3207 96.1372 61.0358 94.4222 62.7511 92.7069C63.9442 93.751 65.1375 94.7949 66.3306 95.839C67.4492 96.9576 68.5679 98.0762 69.6865 99.1948C70.0035 99.5615 70.3203 99.928 70.6373 100.295C73.1658 103.219 74.8894 105.088 76.9474 107.137C77.6964 107.883 78.4456 108.629 79.1947 109.374C79.8153 108.815 80.4361 108.256 81.0567 107.696C82.0807 106.773 83.5405 105.386 84.3007 104.613C85.0609 103.841 86.5133 102.406 89.374 99.6423C89.7282 99.9311 90.0825 100.22 90.4367 100.509C91.0211 100.986 92.1788 102.244 94.5196 105.235C92.6366 107.127 90.7537 109.018 88.8706 110.91C82.6653 117.143 81.041 118.435 79.4074 118.435C78.8756 118.435 78.1573 118.328 77.8109 118.198C77.4646 118.068 74.2866 115.098 64.3171 105.235C64.3171 105.186 64.3171 105.137 64.3171 105.088C64.3171 105.006 63.5117 104.151 60.7376 101.432Z" fill="#97CA4C"></path><path d="M53.8028 64.2942C54.9214 63.1755 56.04 62.0569 57.1586 60.9383C58.4264 59.8942 59.694 58.8503 60.9619 57.8062C62.6772 59.4468 64.3922 61.0875 66.1075 62.7281C64.9889 63.9959 63.8703 65.2635 62.7517 66.5314C61.633 67.65 60.5144 68.7686 59.3958 69.8872C57.7546 71.4707 56.1134 73.054 54.4721 74.6375C52.8309 76.221 51.1895 77.8043 49.5482 79.3878C52.6817 82.5597 55.8149 85.7317 58.9484 88.9036C57.2331 90.6189 55.518 92.3339 53.8028 94.0492C51.7524 92.0227 49.7017 89.996 47.6513 87.9696C43.6498 84.0148 41.3432 81.5659 41.0515 80.9635C40.5598 79.9475 40.4768 78.7502 40.8331 77.8128C40.9596 77.4801 43.9295 74.3024 53.8028 64.2942Z" fill="#97CA4C"></path><path d="M101.678 97.8525C100.485 98.9711 99.2918 100.09 98.0987 101.208C96.3835 99.4186 94.6684 97.6288 92.9531 95.839C94.0717 94.6459 95.1903 93.4526 96.309 92.2595C96.873 91.738 97.4372 91.2167 98.0012 90.6952C98.9319 89.8348 99.6366 89.0294 99.4411 88.6799C99.5379 88.6925 99.6346 88.7048 99.7315 88.7173C99.8912 88.7379 102.116 86.6487 104.674 84.075C106.225 82.5153 107.776 80.9552 109.327 79.3955C106.181 76.226 103.034 73.0567 99.8885 69.8873C101.604 68.172 103.319 66.4569 105.034 64.7417C107.123 66.7708 109.212 68.8 111.301 70.8291C118.04 77.375 118.615 78.0997 118.392 79.7628C118.326 80.2554 118.015 81.0288 117.701 81.4812C117.386 81.9336 114.458 84.9673 111.194 88.2226C107.929 91.478 105.258 94.2213 105.258 94.4967C105.208 94.4967 105.159 94.4967 105.109 94.4967C105.028 94.4967 104.222 95.2518 101.678 97.8525Z" fill="#97CA4C"></path><path d="M96.3105 66.0839C95.1174 65.0398 93.9241 63.9959 92.731 62.9518C91.6124 61.7587 90.4938 60.5654 89.3752 59.3723C88.3773 58.3841 87.3793 57.3961 86.3815 56.408C84.7349 54.7775 82.463 52.5955 81.3328 51.559C80.6477 50.9308 79.9627 50.3024 79.2777 49.6741C76.0809 52.8322 72.8844 55.9905 69.6876 59.1486C67.9723 57.4333 66.2573 55.7182 64.542 54.0029C66.585 51.9335 68.6278 49.8641 70.6709 47.7947C77.1919 41.189 78.179 40.402 79.6088 40.6702C81.3355 40.9942 83.4221 42.8323 94.7445 54.0029C95.8631 55.1216 96.9817 56.2402 98.1003 57.3588C99.2189 58.5519 100.338 59.7452 101.456 60.9383C99.7409 62.6536 98.0258 64.3687 96.3105 66.0839Z" fill="#97CA4C"></path><path d="M96.3139 66.084C98.0291 64.3687 99.7442 62.6536 101.459 60.9384C116.211 46.4609 120.746 42.1721 121.054 42.0678C121.362 41.9636 121.886 41.9443 122.219 42.0251C122.958 42.2041 158.582 77.7092 158.975 78.6583C159.175 79.142 159.169 79.4482 158.947 80.0107C158.771 80.457 154.418 85.0361 147.678 91.8655C141.638 97.9856 133.776 105.974 130.208 109.618C126.639 113.262 123.34 116.5 122.875 116.814C121.351 117.842 121.203 117.733 113.54 109.962C109.788 106.155 105.584 101.874 104.2 100.447C103.361 99.5821 102.522 98.7172 101.683 97.8525C104.227 95.2517 105.033 94.4967 105.114 94.4967C105.164 94.4967 105.213 94.4967 105.263 94.4967C111.418 100.714 115.058 104.439 117.323 106.786C119.587 109.132 121.556 111.052 121.698 111.052C121.84 111.052 123.662 109.286 125.746 107.127C127.831 104.968 134.822 97.8456 141.282 91.2988C145.197 87.3311 149.112 83.3632 153.027 79.3954C147.807 74.1753 142.587 68.955 137.366 63.7349C132.146 58.5148 126.926 53.2944 121.705 48.0743C118.927 50.8523 116.15 53.63 113.372 56.408C110.594 59.1859 107.817 61.9637 105.039 64.7416C103.324 66.4569 101.609 68.172 99.8934 69.8872C96.6703 73.0607 93.4471 76.2345 90.2239 79.408C91.7609 80.9532 93.2979 82.4987 94.8348 84.0439C96.3718 85.5892 97.909 87.1347 99.446 88.6799C99.6415 89.0294 98.9368 89.8348 98.0061 90.6952C97.4421 91.2167 96.8779 91.738 96.3139 92.2595C92.3242 88.3011 88.3344 84.3431 84.3447 80.3847C84.3447 80.0201 84.3447 79.6552 84.3447 79.2905C84.3447 78.9258 84.3447 78.5607 84.3447 78.1961C86.3397 76.1774 88.3344 74.1588 90.3293 72.1401C92.3242 70.1215 94.3189 68.1026 96.3139 66.084Z" fill="#FFFFFF"></path><path d="M57.161 60.9383C56.0424 62.0569 54.9238 63.1755 53.8052 64.2941C48.3204 58.8512 42.8359 53.4082 37.3511 47.9653C32.1111 53.2056 26.8713 58.4462 21.6312 63.6865C16.3912 68.9267 11.1514 74.1672 5.91141 79.4074C9.81089 83.3326 13.7099 87.2579 17.6094 91.1831C24.0434 97.6596 31.0614 104.78 33.2051 107.005C35.3488 109.231 37.2144 111.052 37.3511 111.052C37.6278 111.052 42.8162 105.749 49.4451 98.6914C50.8984 97.1439 52.3519 95.5966 53.8052 94.0492C55.5205 92.3339 57.2355 90.6188 58.9508 88.9036C66.4063 81.7245 68.5708 79.5345 68.5708 79.4052C68.5708 79.2759 66.507 77.0816 63.9845 74.5287C62.4558 72.9815 60.9269 71.4344 59.3982 69.8872C60.5168 68.7686 61.6355 67.6499 62.7541 66.5313C71.6282 75.2874 74.3527 78.1134 74.5339 78.4609C75.2082 79.7535 74.9416 80.1236 68.6588 86.6104C66.6905 88.6425 64.7224 90.6748 62.7541 92.7068C61.0388 94.4221 59.3237 96.1372 57.6085 97.8524C53.6096 101.754 49.4128 105.98 45.702 109.76C41.9911 113.541 38.6178 116.794 38.2057 116.99C36.8363 117.64 36.5121 117.386 29.1863 109.928C25.4386 106.113 17.3385 97.9055 11.1861 91.6893C7.45733 87.9221 3.72878 84.1546 0 80.3873C0 80.0157 0 79.6441 0 79.2725C0 78.9009 0 78.5293 0 78.1577C6.00873 72.1615 12.0177 66.1653 18.0264 60.1691C37.5189 40.7176 36.7421 41.406 38.2854 42.2221C38.6386 42.4089 43.0301 46.6966 48.0443 51.75C51.0832 54.8128 54.1222 57.8755 57.161 60.9383Z" fill="#FFFFFF"></path><path d="M60.7411 101.432C63.5153 104.151 64.3207 105.006 64.3207 105.088C64.3207 105.137 64.3207 105.186 64.3207 105.235C58.8478 110.762 53.3751 116.289 47.9022 121.816C53.1326 127.046 58.3632 132.276 63.5936 137.507C68.824 142.737 74.0546 147.968 79.285 153.198C79.9309 152.606 80.577 152.014 81.2229 151.421C82.2887 150.444 89.4675 143.377 97.1756 135.718C101.847 131.076 106.519 126.434 111.19 121.792C108.413 119.033 105.635 116.273 102.857 113.514C100.079 110.754 97.3011 107.995 94.5232 105.235C92.1824 102.244 91.0246 100.986 90.4402 100.509C90.0861 100.22 89.7317 99.931 89.3776 99.6422C82.4028 92.7186 79.5468 90.0215 79.1982 90.0288C79.0752 90.0313 76.8854 92.0947 74.3322 94.614C72.7848 96.1409 71.2375 97.6678 69.69 99.1947C68.5714 98.0761 67.4528 96.9575 66.3342 95.8389C74.9166 87.3319 77.6485 84.664 77.942 84.4219C78.54 83.9286 79.6309 83.8588 80.3372 84.2691C81.2576 84.8038 83.0444 86.4007 87.9641 91.0848C89.6284 92.6694 91.2928 94.2543 92.9571 95.8389C94.6724 97.6287 96.3874 99.4185 98.1027 101.208C99.7498 103.193 104.028 107.602 108.674 112.286C116.606 120.286 117.119 120.851 117.119 121.599C117.119 122.127 116.901 122.688 116.471 123.267C115.65 124.373 83.4462 156.419 81.6511 157.917C80.468 158.904 80.1967 159.031 79.2575 159.035C78.9045 159.037 78.5512 159.039 78.1982 159.04C72.2311 153.075 66.2637 147.11 60.2966 141.144C50.4508 131.301 42.2527 122.945 42.0784 122.575C41.4216 121.181 41.4659 121.126 51.3804 110.996C54.5006 107.808 57.6209 104.62 60.7411 101.432Z" fill="#FFFFFF"></path></svg> 