<svg width="24" height="24" viewBox="0 0 24 24" fill="none" xmlns="http://www.w3.org/2000/svg">
<path d="M16.2021 14.1826C16.0785 14.2539 15.9254 14.2539 15.8018 14.1826C15.6782 14.1111 15.6026 13.9787 15.6025 13.8359L15.6025 12.4004L4.00195 12.4004L4.00195 11.5996L15.6025 11.5996L15.6025 10C15.6026 9.8572 15.6781 9.72479 15.8018 9.65332C15.9254 9.582 16.0785 9.58201 16.2021 9.65332L19.5264 11.5713C19.65 11.6428 19.7266 11.7752 19.7266 11.918C19.7265 12.0608 19.65 12.1932 19.5264 12.2646L19.3457 12.3691L19.3457 12.4004L19.291 12.4004L16.2021 14.1826Z" fill="black"/>
</svg>
