<?xml version="1.0" encoding="UTF-8"?> <svg xmlns="http://www.w3.org/2000/svg" width="20" height="20" viewBox="0 0 20 20" fill="none"><g clip-path="url(#clip0_45_345)"><path opacity="0.99" d="M15.1215 1.37741C11.3245 -0.957497 6.00042 -0.2609 2.95052 2.99466C-0.143188 6.05817 -0.737839 11.1913 1.47147 14.9236C0.982944 16.6149 0.492735 18.3088 0 20.0002C1.70057 19.5117 3.3944 19.0147 5.09497 18.5287C7.06675 19.6582 9.42177 20.0861 11.6639 19.718C15.6134 19.1301 18.9901 15.9049 19.7692 11.9915C20.7016 7.93064 18.7265 3.45035 15.1215 1.37741ZM13.1059 17.5844C10.5883 18.607 7.58728 18.2533 5.36113 16.7051C4.39419 16.9755 3.42893 17.2627 2.46368 17.5356C2.7391 16.5754 3.01706 15.6176 3.29417 14.6591C1.73258 12.405 1.35776 9.38111 2.41061 6.83731C3.6395 3.70389 6.93199 1.51723 10.3079 1.67896C14.1116 1.71855 17.6012 4.745 18.1866 8.50342C18.9177 12.2383 16.6477 16.2342 13.1051 17.5836L13.1059 17.5844Z" fill="#31FF16"></path><path opacity="0.99" d="M12.6542 11.0453C12.0411 11.2584 11.7976 11.9963 11.2822 12.3686C9.71804 11.8059 8.27858 10.7168 7.59128 9.17285C7.58202 8.63798 8.43356 8.42571 8.36618 7.80998C8.271 6.95165 7.769 6.17167 7.40851 5.39421C6.67488 4.90566 5.67509 5.40095 5.35334 6.15819C4.55485 7.67605 5.27669 9.45081 6.20741 10.7303C7.62329 12.6929 9.78458 14.1501 12.1817 14.5738C13.0611 14.6917 14.1855 14.6504 14.722 13.8241C14.9857 13.3078 15.2123 12.6811 15.048 12.105C14.2798 11.6905 13.4755 11.3342 12.6542 11.0453Z" fill="#31FF16"></path></g><defs><clipPath id="clip0_45_345"><rect width="20" height="20" fill="white"></rect></clipPath></defs></svg> 