<?xml version="1.0" encoding="UTF-8"?> <svg xmlns="http://www.w3.org/2000/svg" width="20" height="20" viewBox="0 0 20 20" fill="none"><path opacity="0.99" d="M15.1468 12.4075C13.9318 12.8598 13.4495 14.4259 12.4281 15.2161C9.32898 14.0219 6.47683 11.7103 5.11501 8.43339C5.09665 7.29817 6.78391 6.84766 6.6504 5.54082C6.46181 3.71911 5.46715 2.06366 4.75286 0.413572C3.29925 -0.623319 1.31827 0.427874 0.68075 2.03505C-0.901365 5.25657 0.528879 9.02334 2.37301 11.7389C5.17843 15.9044 9.46082 18.9972 14.2105 19.8964C15.9528 20.1467 18.1808 20.0591 19.2439 18.3053C19.7663 17.2094 20.2152 15.8793 19.8898 14.6565C18.3677 13.7769 16.7739 13.0207 15.1468 12.4075Z" fill="#31FC16"></path></svg> 