<?xml version="1.0" encoding="UTF-8"?> <svg xmlns="http://www.w3.org/2000/svg" viewBox="0 0 100 100" fill-rule="evenodd"><path d="m7.0781 15.66c1.2305-0.61328 2.6133-0.96094 4.0781-0.96094h77.684c1.4648 0 2.8516 0.34766 4.0781 0.96094l-42.91 39.785c-0.011718 0.007813-0.015624 0.007813-0.03125-0.003906zm89.953 64.574c0.61719-1.2305 0.96875-2.6211 0.96875-4.0898v-52.289c0-1.4688-0.35156-2.8555-0.96875-4.0898l-32.609 30.234 32.609 30.23zm-94.062-60.469c-0.61719 1.2305-0.96875 2.6211-0.96875 4.0898v52.289c0 1.4688 0.35156 2.8555 0.96875 4.0898l32.609-30.23zm57.188 34.191-6.1875 5.7383c-1.1094 1.0352-2.5352 1.5508-3.9648 1.5508-1.4258 0-2.8594-0.51953-3.9727-1.5547l-6.1836-5.7305-32.77 30.379c1.2305 0.61328 2.6133 0.96094 4.0781 0.96094h77.684c1.4648 0 2.8516-0.34766 4.0781-0.96094l-32.77-30.379z" fill="#f2a900"></path></svg> 